<?xml version="1.0" standalone="no"?>
<!DOCTYPE svg PUBLIC "-//W3C//DTD SVG 20010904//EN"
 "http://www.w3.org/TR/2001/REC-SVG-20010904/DTD/svg10.dtd">
<svg version="1.0" xmlns="http://www.w3.org/2000/svg"
 width="1024.000000pt" height="1024.000000pt" viewBox="0 0 1024.000000 1024.000000"
 preserveAspectRatio="xMidYMid meet">

<g transform="translate(0.000000,1024.000000) scale(0.100000,-0.100000)"
fill="#000000" stroke="none">
<path d="M8865 8023 c-28 -3 -1174 -60 -1660 -83 -121 -6 -379 -20 -573 -31
-194 -11 -357 -17 -361 -14 -8 4 -2258 -123 -2916 -166 -519 -33 -776 -47
-1530 -79 -126 -6 -263 -13 -303 -16 l-73 -6 -401 -441 c-221 -243 -453 -497
-516 -564 -106 -114 -113 -124 -100 -142 8 -11 86 -103 174 -203 460 -526
1066 -1218 1101 -1258 l41 -45 22 75 c12 41 40 133 60 203 l38 128 -102 117
c-56 64 -281 323 -499 574 l-397 458 361 400 c299 330 367 400 388 400 32 0
640 36 841 50 214 14 1949 100 2130 105 41 1 451 23 910 48 459 26 963 53
1120 61 286 15 375 19 1245 56 259 11 556 25 660 30 105 5 208 10 230 10 44 0
32 12 502 -498 l171 -187 -56 -60 c-31 -33 -336 -343 -677 -690 -342 -346
-760 -774 -930 -950 -171 -176 -402 -414 -515 -530 -429 -439 -598 -613 -1010
-1040 -622 -644 -713 -738 -1159 -1198 l-406 -418 -45 53 c-55 65 -719 822
-1127 1287 -167 190 -303 348 -303 351 0 7 93 12 468 26 l173 7 23 46 c78 153
567 1277 742 1704 100 246 151 359 129 292 -23 -71 -165 -674 -284 -1200 -77
-341 -151 -667 -165 -725 -14 -57 -24 -106 -22 -107 1 -2 205 4 452 12 247 8
468 15 490 15 l41 0 37 188 c20 103 91 453 157 777 66 325 181 889 255 1255
74 366 142 700 151 743 8 43 13 80 10 83 -5 6 -1132 -41 -1254 -52 l-62 -5
-239 -542 c-289 -652 -443 -1005 -503 -1151 -41 -103 -44 -107 -46 -70 -7 106
-34 803 -49 1224 -9 261 -19 478 -23 481 -3 4 -82 3 -176 -2 -294 -14 -1100
-48 -1620 -69 -791 -31 -816 -33 -808 -41 12 -12 381 -153 773 -294 195 -71
356 -129 357 -130 8 -3 -678 -2240 -868 -2828 -50 -153 -88 -284 -86 -290 4
-13 64 42 417 384 l256 247 364 7 c201 4 372 9 381 10 11 2 62 -48 145 -143
71 -81 259 -295 419 -477 366 -416 1164 -1327 1315 -1503 l115 -134 125 129
c69 71 373 383 675 694 303 310 681 699 840 864 410 425 1283 1316 2185 2230
190 193 489 496 665 675 176 179 416 422 533 540 116 119 218 225 226 236 13
19 3 32 -162 209 -462 499 -834 894 -845 897 -7 2 -25 2 -42 1z m-3157 -1223
c-9 -6 -216 -58 -460 -116 -361 -86 -446 -110 -458 -126 -17 -23 -70 -120
-450 -813 -144 -264 -308 -561 -362 -660 -55 -99 -116 -208 -135 -243 -19 -35
-37 -62 -39 -59 -3 2 12 42 32 88 19 46 73 179 119 294 45 116 124 309 175
430 51 121 182 433 291 693 109 261 199 476 201 478 2 2 213 10 469 19 255 8
480 17 499 19 85 7 135 5 118 -4z m-2353 -110 c-16 -5 -181 -20 -365 -35 -184
-14 -361 -28 -392 -31 l-57 -6 -35 -107 c-117 -356 -365 -1131 -486 -1516
-276 -877 -453 -1421 -436 -1340 2 11 45 164 94 340 50 176 107 385 127 465
67 268 330 1232 456 1674 33 114 59 210 57 212 -6 5 -551 211 -638 240 l-85
28 290 17 c267 16 1049 55 1225 62 171 7 275 5 245 -3z m1965 -425 c0 -2 -7
-22 -15 -42 -8 -21 -25 -78 -39 -128 -50 -181 -499 -1765 -543 -1915 -25 -85
-48 -158 -51 -161 -4 -4 -60 -10 -124 -14 -108 -6 -118 -5 -118 11 0 9 38 197
85 418 46 221 103 493 125 606 57 283 220 1013 228 1022 4 4 86 42 182 86 96
43 193 88 215 100 40 21 55 26 55 17z m-2265 -1255 c20 -338 44 -725 54 -860
16 -223 17 -262 8 -249 -2 2 -73 85 -158 184 -228 265 -208 233 -192 318 16
84 229 1293 234 1332 6 38 23 -196 54 -725z m1621 -2966 c111 -53 64 -234 -61
-234 -47 0 -71 13 -90 50 -38 74 7 172 90 193 11 2 22 5 23 6 2 0 19 -6 38
-15z"/>
<path d="M7799 7564 c-60 -18 -119 -81 -119 -125 0 -62 30 -86 143 -115 88
-22 98 -54 21 -70 -25 -5 -32 -2 -42 20 -11 25 -15 26 -92 26 -69 0 -80 -2
-82 -17 -8 -93 45 -133 174 -133 85 0 132 11 179 43 73 49 99 129 59 180 -19
24 -112 67 -145 67 -7 0 -26 5 -40 10 -23 9 -25 13 -14 26 15 19 63 12 90 -12
12 -11 33 -14 74 -12 65 3 82 18 71 62 -15 59 -163 85 -277 50z"/>
<path d="M7329 7544 c-64 -19 -109 -71 -109 -125 0 -55 30 -82 121 -109 87
-26 104 -37 88 -56 -16 -20 -89 -19 -89 1 0 25 -43 38 -103 31 -61 -8 -71 -19
-57 -67 15 -50 47 -77 107 -89 155 -33 303 47 303 163 0 65 -51 106 -158 127
-70 14 -78 33 -15 38 27 2 44 -2 53 -13 15 -18 125 -22 135 -4 4 6 4 26 0 45
-5 29 -14 39 -48 55 -51 23 -160 24 -228 3z"/>
<path d="M6942 7540 c-78 -4 -143 -9 -145 -11 -7 -9 -96 -414 -92 -417 2 -2
92 -1 199 3 l196 7 10 37 c5 20 10 47 10 60 l0 24 -120 -6 c-66 -3 -120 -2
-120 3 0 36 12 40 115 40 112 0 135 9 135 55 0 13 3 30 6 39 5 14 -8 16 -109
16 -110 0 -115 1 -110 20 5 17 14 20 72 21 36 1 93 4 125 8 l60 6 11 53 12 52
-56 -2 c-31 0 -120 -4 -199 -8z"/>
<path d="M8463 7510 c-94 -42 -114 -163 -33 -205 68 -35 160 -9 200 57 31 51
26 94 -14 134 -40 40 -86 45 -153 14z"/>
<path d="M6549 7410 c-13 -60 -26 -110 -29 -110 -3 0 -26 46 -51 103 l-45 102
-71 3 -71 3 -47 -193 c-25 -106 -49 -201 -52 -211 -4 -16 2 -18 73 -15 l79 3
21 93 c12 51 24 95 26 98 3 2 26 -40 51 -95 l47 -98 72 5 c40 2 76 7 80 11 3
3 23 90 42 193 20 103 39 194 42 203 5 13 -6 15 -69 15 l-74 0 -24 -110z"/>
<path d="M5975 7489 c-77 -3 -150 -7 -161 -8 -15 -1 -23 -10 -27 -30 -3 -16
-9 -41 -13 -56 l-7 -28 67 7 c36 3 66 4 66 0 0 -7 -58 -260 -66 -286 -5 -16 3
-18 70 -18 l75 0 16 78 c10 42 25 111 34 152 l17 75 54 3 c90 4 97 7 104 51 3
22 9 46 12 55 7 18 7 18 -241 5z"/>
<path d="M5597 7473 c-3 -5 -24 -93 -47 -198 -23 -104 -44 -198 -46 -207 -5
-16 3 -18 65 -18 57 0 72 3 80 18 7 13 91 388 91 407 0 8 -139 5 -143 -2z"/>
<path d="M5265 7461 l-90 -6 -47 -190 c-26 -104 -50 -200 -53 -212 -5 -22 -2
-23 49 -23 105 0 112 4 130 78 9 36 22 69 29 74 6 4 44 8 84 8 l72 0 11 43 c6
23 13 50 16 59 5 16 -2 17 -85 11 -52 -3 -91 -2 -91 3 1 29 22 37 109 42 l91
5 11 41 c5 22 12 49 15 59 5 15 -3 17 -78 15 -46 -1 -123 -4 -173 -7z"/>
<path d="M4765 7431 l-60 -6 -24 -113 c-14 -62 -28 -109 -31 -105 -4 5 -26 54
-50 111 -23 56 -45 104 -49 105 -3 2 -35 1 -70 -2 l-64 -6 -49 -200 c-26 -110
-48 -206 -48 -212 0 -14 33 -16 103 -7 l46 7 24 100 c27 114 23 115 77 -21 32
-83 33 -84 63 -78 16 3 51 6 78 6 57 0 47 -21 104 240 39 185 40 191 23 188
-7 -1 -40 -4 -73 -7z"/>
<path d="M4143 7407 l-183 -9 -9 -37 c-20 -76 -83 -382 -80 -386 6 -5 377 12
387 19 5 3 12 23 16 45 3 22 9 46 12 55 5 14 -8 15 -120 9 -109 -5 -126 -4
-126 9 0 21 30 28 125 28 44 0 85 4 91 8 12 7 34 74 34 101 0 12 -20 13 -111
8 -100 -5 -110 -4 -107 11 3 18 66 29 180 31 l57 1 11 43 c6 23 13 47 15 54 2
7 1 14 -3 15 -4 2 -89 -1 -189 -5z"/>
<path d="M3555 7370 c-5 -8 -95 -390 -95 -404 0 -8 141 -7 262 1 106 7 102 4
113 77 l7 47 -101 -7 c-59 -4 -101 -3 -101 2 0 5 14 69 30 142 17 74 30 138
30 143 0 12 -137 12 -145 -1z"/>
<path d="M3140 7323 c-23 -81 -90 -376 -87 -380 2 -2 85 0 183 4 l179 8 11 63
11 63 -71 -6 c-39 -3 -86 -8 -104 -11 -29 -5 -33 -3 -28 13 7 23 66 270 66
277 0 4 -34 6 -75 6 l-74 0 -11 -37z"/>
<path d="M2916 7341 c-7 -10 -96 -385 -96 -401 0 -7 27 -10 73 -8 l72 3 42
170 c23 93 45 187 48 207 l7 38 -71 0 c-38 0 -72 -4 -75 -9z"/>
<path d="M2646 7333 c-11 -3 -37 -44 -70 -111 l-51 -107 -3 109 -3 109 -96 -7
c-54 -4 -99 -9 -102 -11 -5 -6 -101 -385 -101 -403 0 -10 16 -12 62 -10 l63 3
30 125 30 125 3 -122 3 -123 59 0 58 0 58 120 c31 66 59 119 60 117 2 -2 -10
-54 -27 -116 -16 -62 -29 -114 -27 -115 2 -1 35 0 75 2 l72 4 6 41 c6 33 52
242 79 360 4 15 -5 17 -77 16 -45 -1 -90 -3 -101 -6z"/>
<path d="M1802 7183 c-102 -50 -122 -183 -34 -220 99 -41 214 64 183 168 -20
66 -79 87 -149 52z"/>
<path d="M8870 7044 c-477 -17 -1020 -39 -1560 -64 -239 -11 -644 -29 -899
-40 -256 -11 -466 -22 -467 -23 -9 -9 -391 -1902 -454 -2247 -11 -63 -50 -265
-87 -448 -36 -183 -63 -335 -60 -338 6 -6 905 18 916 25 4 4 38 143 75 311 36
168 90 413 119 545 l54 240 310 7 311 6 304 279 c167 153 342 313 388 355 l85
77 -70 1 c-84 0 -876 -27 -1064 -36 -128 -7 -133 -6 -128 12 3 10 27 134 53
276 l47 256 121 6 c196 9 1151 36 1273 36 l111 0 155 114 c348 256 852 639
862 656 3 5 -2 9 -12 9 -10 -1 -182 -8 -383 -15z m-810 -155 c-107 -15 -1418
-147 -1735 -175 -104 -8 -191 -17 -193 -19 -6 -6 -138 -514 -307 -1180 -180
-712 -213 -835 -214 -820 -1 6 24 129 54 275 31 146 127 623 213 1060 l157
795 455 17 c840 30 1315 49 1335 52 11 2 81 3 155 3 107 1 124 -1 80 -8z"/>
<path d="M3711 3475 c9 -11 130 -148 270 -305 242 -271 581 -654 680 -768 l45
-52 65 67 c270 286 498 524 699 733 258 267 336 352 305 329 -11 -8 -99 -79
-195 -159 -330 -275 -844 -690 -855 -690 -6 0 -98 75 -205 167 -336 288 -772
657 -799 678 -26 19 -26 19 -10 0z"/>
<path d="M2557 3 c1410 -2 3716 -2 5125 0 1410 1 257 2 -2562 2 -2819 0 -3972
-1 -2563 -2z"/>
</g>
</svg>
